<?xml version="1.0" standalone="no"?>
<!DOCTYPE svg PUBLIC "-//W3C//DTD SVG 20010904//EN"
 "http://www.w3.org/TR/2001/REC-SVG-20010904/DTD/svg10.dtd">
<svg version="1.0" xmlns="http://www.w3.org/2000/svg"
 width="200.000000pt" height="200.000000pt" viewBox="0 0 200.000000 200.000000"
 preserveAspectRatio="xMidYMid meet">
<metadata>
Created by potrace 1.11, written by Peter Selinger 2001-2013
</metadata>
<g transform="translate(0.000000,200.000000) scale(0.100000,-0.100000)"
fill="#000000" stroke="none">
<path d="M1220 1979 c-19 -12 -51 -36 -71 -55 l-36 -35 5 33 4 33 -38 -35
c-21 -19 -42 -39 -46 -45 -17 -23 -16 5 2 38 26 49 15 48 -97 -2 -49 -22 -108
-45 -133 -51 -97 -26 -190 -95 -190 -141 -1 -34 -16 -42 -54 -29 -20 6 -44 9
-53 5 -14 -5 -11 -10 15 -25 18 -11 32 -22 32 -25 0 -4 -4 -3 -10 0 -21 13
-31 -7 -11 -22 28 -19 16 -36 -20 -29 -21 4 -29 2 -29 -9 0 -8 -11 -35 -25
-61 -31 -58 -33 -132 -7 -250 13 -57 15 -81 7 -78 -23 9 -38 -27 -42 -99 -4
-68 -3 -75 29 -123 18 -28 47 -72 63 -98 26 -40 34 -46 56 -42 24 5 28 1 39
-42 20 -73 38 -102 100 -167 l58 -60 7 -80 c4 -53 17 -104 36 -150 33 -80 95
-167 122 -171 15 -2 16 0 6 12 -6 7 -22 46 -34 86 -25 77 -29 75 -16 -7 l8
-49 -23 29 c-42 52 -103 225 -79 225 2 0 35 -17 72 -37 59 -33 77 -38 133 -38
56 0 74 5 132 37 93 51 95 44 37 -117 -24 -66 -35 -85 -50 -85 -15 0 -18 6
-14 33 3 17 2 25 -1 17 -4 -8 -14 -31 -23 -50 l-17 -36 38 1 c21 0 38 5 38 10
0 6 18 56 40 112 29 76 40 120 44 178 l4 77 65 67 c54 56 68 77 88 138 20 64
25 72 44 67 17 -4 28 5 55 46 95 141 95 140 93 204 -2 76 -17 120 -39 112 -11
-4 -14 -1 -10 12 17 59 36 181 36 235 0 74 -9 129 -20 122 -18 -11 -20 31 -2
54 36 51 37 54 9 48 -14 -4 -33 -10 -43 -14 -14 -5 -16 -3 -11 10 4 9 10 24
14 33 5 14 3 15 -16 5 -18 -10 -22 -9 -30 11 -5 13 -27 41 -50 62 -33 32 -38
43 -30 58 11 21 -1 24 -31 8 -17 -9 -19 -8 -13 7 11 30 32 57 55 70 21 11 22
12 3 12 -27 1 -105 -36 -134 -62 l-24 -22 13 25 c7 14 24 37 38 53 28 30 27
32 -15 16 l-28 -10 34 35 35 36 -30 0 c-16 0 -45 -9 -64 -21z m72 -433 c43
-21 95 -75 114 -121 14 -35 19 -88 16 -188 -2 -67 -2 -67 -24 -53 -29 18 -137
22 -330 12 -111 -6 -148 -5 -148 3 0 7 -17 19 -37 28 -42 19 -216 24 -245 7
-11 -6 24 -9 105 -10 67 0 133 -5 147 -11 20 -9 -7 -11 -124 -11 -120 -1 -151
-4 -165 -16 -10 -9 -21 -16 -25 -16 -11 0 4 137 25 219 20 78 53 132 100 160
25 15 58 17 291 16 230 -1 268 -4 300 -19z m-399 -362 c35 -6 37 -8 37 -46 0
-24 4 -37 10 -33 6 3 10 19 10 36 0 28 1 29 50 29 l50 0 0 -35 c0 -19 4 -35
10 -35 5 0 8 17 7 37 -2 35 0 37 38 46 22 4 93 7 158 5 129 -4 136 -8 138 -63
1 -30 1 -30 10 -5 6 18 8 8 6 -37 -3 -47 0 -63 10 -63 7 0 13 -1 13 -3 0 -1
-22 -74 -49 -162 l-50 -160 -78 -75 c-84 -80 -175 -135 -239 -145 -48 -8 -121
15 -184 58 -60 41 -156 133 -179 171 -29 49 -106 309 -92 314 6 2 11 21 11 43
0 21 4 39 9 39 6 0 11 17 13 37 2 30 8 39 28 44 32 9 214 11 263 3z m-409 -20
c10 -27 7 -39 -6 -26 -17 17 -26 15 -31 -5 -3 -12 -5 -9 -6 8 -2 39 30 57 43
23z m1066 5 c0 -6 -10 -19 -22 -30 -15 -12 -17 -18 -8 -17 12 3 15 -9 12 -61
-3 -83 9 -71 18 17 7 65 7 65 9 16 1 -52 -15 -117 -28 -110 -3 2 -26 -29 -49
-69 -31 -53 -47 -72 -58 -68 -8 3 -13 11 -11 17 2 6 15 47 27 90 18 59 26 74
31 60 7 -16 8 -16 9 6 1 23 2 23 9 5 9 -23 2 -62 -9 -46 -4 7 -12 2 -20 -14
-21 -39 -3 -42 30 -4 33 39 36 61 15 103 -16 30 -14 43 4 31 6 -3 12 -16 12
-28 1 -18 2 -19 6 -4 3 10 -2 29 -11 42 -12 18 -13 30 -6 50 9 24 40 36 40 14z
m-1076 -73 c-3 -14 -11 -29 -17 -33 -6 -4 -8 2 -4 18 4 13 7 33 7 44 0 13 3
16 11 8 5 -5 7 -22 3 -37z m22 9 c-3 -8 -1 -15 5 -15 6 0 3 -7 -5 -16 -27 -27
-20 -86 14 -119 30 -29 54 -29 30 0 -7 8 -16 30 -21 48 -8 30 -8 29 -4 -8 3
-28 2 -35 -5 -25 -20 31 -8 79 16 62 11 -8 54 -140 54 -165 0 -35 -29 -15 -67
48 -22 36 -42 63 -44 61 -3 -3 -3 13 -2 35 2 42 21 109 30 109 3 0 3 -7 -1
-15z m-42 -90 l6 -30 -14 30 c-9 17 -15 46 -14 65 l0 35 8 -35 c4 -19 10 -48
14 -65z m1019 -60 c-3 -9 -8 -14 -10 -11 -3 3 -2 9 2 15 9 16 15 13 8 -4z"/>
<path d="M1133 1237 c-53 -20 -46 -24 20 -10 58 13 173 11 216 -4 13 -5 14 -3
4 7 -17 18 -198 24 -240 7z"/>
<path d="M673 1168 c-13 -6 -23 -17 -23 -24 0 -15 57 -64 73 -64 7 1 0 7 -14
15 -48 26 -49 65 -1 65 24 0 27 -4 27 -32 0 -23 4 -32 14 -30 12 3 12 1 0 -14
-13 -16 -10 -17 41 -12 74 8 114 26 98 45 -40 49 -161 77 -215 51z m142 -19
c11 -17 -1 -21 -15 -4 -8 9 -8 15 -2 15 6 0 14 -5 17 -11z m50 -25 c17 -13 18
-16 5 -24 -29 -19 -48 -12 -42 15 5 29 10 30 37 9z"/>
<path d="M1153 1150 c-28 -16 -54 -34 -57 -39 -4 -5 17 -17 45 -26 70 -24 132
-16 170 21 36 34 37 52 3 64 -48 19 -106 11 -161 -20z m159 4 c25 -8 7 -39
-35 -60 -20 -10 -28 -12 -19 -3 13 14 17 50 5 48 -18 -3 -33 2 -33 9 0 10 56
14 82 6z m-124 -54 c13 0 14 -2 3 -9 -7 -5 -28 -4 -48 2 l-35 11 28 25 29 25
3 -27 c2 -17 9 -27 20 -27z"/>
<path d="M924 858 c-3 -4 11 -15 30 -25 30 -14 41 -15 76 -4 65 19 51 37 -31
37 -39 0 -73 -4 -75 -8z"/>
<path d="M1070 709 c-30 -5 -90 -7 -132 -5 -43 2 -78 0 -78 -5 0 -16 239 -16
269 1 23 13 -2 17 -59 9z"/>
<path d="M965 650 c3 -5 19 -8 36 -6 46 5 47 16 0 16 -25 0 -40 -4 -36 -10z"/>
<path d="M1244 618 l-29 -33 33 29 c30 28 37 36 29 36 -2 0 -16 -15 -33 -32z"/>
<path d="M745 620 c10 -11 20 -20 23 -20 3 0 -3 9 -13 20 -10 11 -20 20 -23
20 -3 0 3 -9 13 -20z"/>
<path d="M1301 491 c24 -30 61 -73 83 -95 36 -38 35 -37 -5 13 -24 30 -61 73
-83 95 -36 38 -35 37 5 -13z"/>
<path d="M679 453 c-13 -16 -12 -17 4 -4 16 13 21 21 13 21 -2 0 -10 -8 -17
-17z"/>
<path d="M649 413 c-13 -16 -12 -17 4 -4 16 13 21 21 13 21 -2 0 -10 -8 -17
-17z"/>
<path d="M610 390 c-9 -6 -10 -10 -3 -10 6 0 15 5 18 10 8 12 4 12 -15 0z"/>
<path d="M457 314 c-214 -60 -298 -113 -349 -219 -48 -103 -66 -96 230 -93
l257 3 3 80 c2 44 -2 118 -9 165 -7 47 -12 88 -11 93 1 4 1 6 0 6 -2 -1 -56
-16 -121 -35z"/>
<path d="M1424 295 c-7 -28 2 -218 12 -268 l6 -27 235 0 236 0 -7 42 c-25 154
-150 233 -428 273 -45 7 -47 6 -54 -20z"/>
<path d="M976 148 c7 -11 35 -10 53 1 10 6 3 9 -22 8 -20 0 -34 -5 -31 -9z"/>
<path d="M1135 143 c-30 -11 -66 -14 -145 -10 -111 6 -118 4 -181 -45 -19 -14
-64 -38 -101 -53 -38 -15 -68 -29 -68 -31 0 -2 178 -4 396 -4 l397 0 -96 64
c-89 60 -152 98 -159 95 -2 -1 -21 -8 -43 -16z"/>
</g>
</svg>
